<svg xmlns="http://www.w3.org/2000/svg" width="800" height="500" viewBox="0 0 800 500">
  <rect fill="#fafafa" width="800" height="500"/>
  <rect x="160" y="60" width="480" height="16" rx="3" fill="#333" opacity="0.15"/>
  <rect x="200" y="100" width="400" height="8" rx="2" fill="#333" opacity="0.08"/>
  <rect x="120" y="160" width="560" height="6" rx="2" fill="#333" opacity="0.06"/>
  <rect x="120" y="180" width="520" height="6" rx="2" fill="#333" opacity="0.06"/>
  <rect x="120" y="200" width="540" height="6" rx="2" fill="#333" opacity="0.06"/>
  <rect x="120" y="220" width="480" height="6" rx="2" fill="#333" opacity="0.06"/>
  <rect x="120" y="260" width="560" height="6" rx="2" fill="#333" opacity="0.06"/>
  <rect x="120" y="280" width="530" height="6" rx="2" fill="#333" opacity="0.06"/>
  <rect x="120" y="300" width="550" height="6" rx="2" fill="#333" opacity="0.06"/>
  <rect x="120" y="340" width="200" height="10" rx="3" fill="#333" opacity="0.12"/>
  <rect x="120" y="370" width="560" height="6" rx="2" fill="#333" opacity="0.06"/>
  <rect x="120" y="390" width="520" height="6" rx="2" fill="#333" opacity="0.06"/>
  <rect x="120" y="410" width="540" height="6" rx="2" fill="#333" opacity="0.06"/>
</svg>
