<svg xmlns="http://www.w3.org/2000/svg" width="800" height="500" viewBox="0 0 800 500">
  <rect fill="#f5f5ff" width="800" height="500"/>
  <rect x="40" y="40" width="350" height="120" rx="10" fill="#6366f1" opacity="0.12"/>
  <rect x="410" y="40" width="350" height="120" rx="10" fill="#6366f1" opacity="0.08"/>
  <rect x="40" y="180" width="720" height="280" rx="10" fill="#6366f1" opacity="0.06"/>
  <rect x="70" y="360" width="40" height="80" rx="4" fill="#6366f1" opacity="0.3"/>
  <rect x="130" y="320" width="40" height="120" rx="4" fill="#6366f1" opacity="0.4"/>
  <rect x="190" y="280" width="40" height="160" rx="4" fill="#6366f1" opacity="0.5"/>
  <rect x="250" y="300" width="40" height="140" rx="4" fill="#6366f1" opacity="0.35"/>
  <rect x="310" y="260" width="40" height="180" rx="4" fill="#6366f1" opacity="0.6"/>
  <rect x="370" y="340" width="40" height="100" rx="4" fill="#6366f1" opacity="0.25"/>
  <rect x="430" y="310" width="40" height="130" rx="4" fill="#a5b4fc" opacity="0.5"/>
  <rect x="490" y="290" width="40" height="150" rx="4" fill="#a5b4fc" opacity="0.6"/>
  <circle cx="600" cy="100" r="35" fill="#6366f1" opacity="0.2"/>
  <text x="585" y="108" font-family="sans-serif" font-size="18" fill="#6366f1" opacity="0.6">72%</text>
</svg>
